<svg xmlns="http://www.w3.org/2000/svg" width="1280" height="320" viewBox="0 0 1280 320">
  <defs>
    <linearGradient id="bg-as" x1="0%" y1="0%" x2="100%" y2="100%">
      <stop offset="0%" style="stop-color:#050a0f"/>
      <stop offset="100%" style="stop-color:#08121a"/>
    </linearGradient>
    <linearGradient id="accent-as" x1="0%" y1="0%" x2="100%" y2="0%">
      <stop offset="0%" style="stop-color:#ffd166"/>
      <stop offset="100%" style="stop-color:#ff9f1c"/>
    </linearGradient>
    <pattern id="scan-as" width="1" height="8" patternUnits="userSpaceOnUse">
      <line x1="0" y1="0" x2="1280" y2="0" stroke="#0c1e2b" stroke-width="0.5"/>
    </pattern>
    <filter id="glow-as">
      <feGaussianBlur stdDeviation="6" result="blur"/>
      <feMerge><feMergeNode in="blur"/><feMergeNode in="SourceGraphic"/></feMerge>
    </filter>
  </defs>
  <rect width="1280" height="320" fill="url(#bg-as)"/>
  <rect width="1280" height="320" fill="url(#scan-as)"/>
  <rect x="0" y="0" width="4" height="320" fill="url(#accent-as)"/>
  <rect x="0" y="0" width="1280" height="28" fill="#0a1520" opacity="0.9"/>
  <text x="20"  y="18" font-family="'JetBrains Mono',monospace" font-size="12" fill="#00d68f">NVDA ▲2.4%</text>
  <text x="130" y="18" font-family="'JetBrains Mono',monospace" font-size="12" fill="#ff4d6a">PLTR ▼1.1%</text>
  <text x="240" y="18" font-family="'JetBrains Mono',monospace" font-size="12" fill="#00d68f">MSFT ▲0.8%</text>
  <text x="350" y="18" font-family="'JetBrains Mono',monospace" font-size="12" fill="#ffd166">AMD  ─0.0%</text>
  <text x="460" y="18" font-family="'JetBrains Mono',monospace" font-size="12" fill="#00d68f">META ▲3.2%</text>
  <text x="570" y="18" font-family="'JetBrains Mono',monospace" font-size="12" fill="#ff4d6a">INTC ▼0.6%</text>
  <text x="680" y="18" font-family="'JetBrains Mono',monospace" font-size="12" fill="#00d68f">GOOGL▲1.9%</text>
  <text x="800" y="18" font-family="'JetBrains Mono',monospace" font-size="12" fill="#ffd166">AMZN ─0.2%</text>
  <g opacity="0.28" transform="translate(900, 60)">
    <polyline points="0,140 40,100 80,120 120,70 160,90 200,40 240,60 280,20 320,50"
              fill="none" stroke="#ffd166" stroke-width="2"/>
    <polyline points="0,140 40,100 80,120 120,70 160,90 200,40 240,60 280,20 320,50 320,160 0,160"
              fill="#ffd166" opacity="0.08"/>
    <circle cx="320" cy="50" r="5" fill="#ffd166"/>
  </g>
  <g transform="translate(80, 90)" filter="url(#glow-as)">
    <rect x="0" y="0" width="120" height="88" rx="10" fill="#08121a" stroke="url(#accent-as)" stroke-width="2.5"/>
    <circle cx="16" cy="14" r="5" fill="#ff5f57"/>
    <circle cx="32" cy="14" r="5" fill="#febc2e"/>
    <circle cx="48" cy="14" r="5" fill="#28c840"/>
    <text x="10" y="40" font-family="'JetBrains Mono',Consolas,monospace" font-size="13" fill="#ffd166">$ scan --ai</text>
    <text x="10" y="60" font-family="'JetBrains Mono',Consolas,monospace" font-size="13" fill="#00d68f">✓ 30 stocks</text>
    <text x="10" y="78" font-family="'JetBrains Mono',Consolas,monospace" font-size="13" fill="#ffd166">█</text>
  </g>
  <text x="230" y="156" font-family="'JetBrains Mono','SF Mono',monospace" font-size="72" font-weight="700"
        letter-spacing="-1" fill="#e8f4ff">Agent</text>
  <text x="544" y="156" font-family="'JetBrains Mono','SF Mono',monospace" font-size="72" font-weight="700"
        letter-spacing="-1" fill="url(#accent-as)">Scope</text>
  <text x="232" y="196" font-family="monospace" font-size="19" fill="#ffd166"
        letter-spacing="3" opacity="0.85">AI INTELLIGENCE TERMINAL · ZERO DEPS</text>
  <rect x="230" y="212" width="560" height="2" fill="url(#accent-as)" opacity="0.45"/>
  <rect x="230" y="232" width="120" height="28" rx="14" fill="#ffd166" opacity="0.15"/>
  <text x="290" y="251" font-family="monospace" font-size="13" fill="#ffd166" text-anchor="middle">30 AI Stocks</text>
  <rect x="362" y="232" width="110" height="28" rx="14" fill="#ffd166" opacity="0.15"/>
  <text x="417" y="251" font-family="monospace" font-size="13" fill="#ffd166" text-anchor="middle">13 News Srcs</text>
  <rect x="484" y="232" width="110" height="28" rx="14" fill="#ffd166" opacity="0.15"/>
  <text x="539" y="251" font-family="monospace" font-size="13" fill="#ffd166" text-anchor="middle">1 File · $0</text>
</svg>